<svg width="155" height="48" viewBox="0 0 155 48" fill="none" xmlns="http://www.w3.org/2000/svg">
<path d="M10.3117 42.6754C8.42602 42.6754 6.69547 42.389 5.12006 41.8161C3.56853 41.2193 2.3273 40.3481 1.39638 39.2023C0.46546 38.0566 0 36.6722 0 35.049L0.0358046 34.2613H5.29909L5.26328 34.8342C5.26328 35.8845 5.72874 36.7199 6.65966 37.3405C7.59058 37.9611 8.89149 38.2714 10.5624 38.2714C12.3287 38.2714 13.6058 38.0447 14.3935 37.5911C15.1812 37.1137 15.575 36.4812 15.575 35.6935C15.575 35.0013 15.3124 34.4284 14.7873 33.9749C14.286 33.4975 13.6416 33.1275 12.8539 32.8649C12.09 32.5785 11.0278 32.2443 9.66725 31.8624C7.7338 31.3134 6.17033 30.7883 4.97684 30.287C3.78336 29.7857 2.75696 29.0458 1.89765 28.0671C1.03833 27.0646 0.608679 25.7517 0.608679 24.1286C0.608679 21.8848 1.51573 20.1781 3.32983 19.0085C5.14393 17.8389 7.55478 17.2541 10.5624 17.2541C13.4029 17.2541 15.7182 17.8628 17.5085 19.0801C19.3226 20.2736 20.2296 22.0758 20.2296 24.4866V24.9163H15.0738V24.5941C15.0738 23.687 14.656 22.9709 13.8206 22.4458C13.009 21.9206 11.8991 21.6581 10.4908 21.6581C8.98696 21.6581 7.82928 21.861 7.01771 22.2668C6.23001 22.6725 5.83616 23.2335 5.83616 23.9496C5.83616 24.4986 6.07485 24.976 6.55225 25.3818C7.02964 25.7637 7.62639 26.0859 8.34248 26.3485C9.05857 26.5872 10.073 26.8856 11.3859 27.2436C13.3432 27.7687 14.9425 28.2939 16.1837 28.819C17.4488 29.3203 18.5349 30.0722 19.4419 31.0747C20.349 32.0772 20.8025 33.3901 20.8025 35.0132C20.8025 37.6389 19.8596 39.5723 17.9739 40.8136C16.1121 42.0548 13.558 42.6754 10.3117 42.6754Z" fill="#0D19A3"/>
<path d="M35.7686 42.6754C27.8438 42.6754 23.8814 38.4385 23.8814 29.9648C23.8814 25.7159 24.9197 22.5413 26.9964 20.4407C29.0731 18.3163 31.9971 17.2541 35.7686 17.2541C37.8452 17.2541 39.7071 17.6122 41.3541 18.3282C43.025 19.0205 44.3378 20.0946 45.2926 21.5507C46.2712 22.9828 46.7606 24.7373 46.7606 26.8139H41.4257C41.4257 25.2147 40.9125 23.9615 39.8861 23.0545C38.8597 22.1235 37.523 21.6581 35.876 21.6581C33.6322 21.6581 31.9613 22.3264 30.8633 23.6631C29.7653 24.9998 29.2163 26.9214 29.2163 29.4277V30.5018C29.2163 35.6816 31.4362 38.2714 35.876 38.2714C37.6185 38.2714 39.0029 37.8179 40.0293 36.9109C41.0796 36.0038 41.6047 34.7506 41.6047 33.1514H46.7606C46.7606 35.2519 46.2832 37.0183 45.3284 38.4504C44.3736 39.8588 43.0727 40.921 41.4257 41.6371C39.7787 42.3293 37.893 42.6754 35.7686 42.6754Z" fill="#0D19A3"/>
<path d="M48.8258 39.811L61.25 22.0877H49.7567V17.6838H68.8764V20.1543L56.488 37.8418H69.1986V42.2457H48.8258V39.811Z" fill="#0D19A3"/>
<path d="M77.8393 31.9385C75.5657 31.9385 73.865 31.3388 72.7371 30.1393C71.6272 28.9398 71.0722 27.078 71.0722 24.5538C71.0722 22.0295 71.6272 20.1677 72.7371 18.9683C73.865 17.7688 75.5657 17.1691 77.8393 17.1691C79.9338 17.1691 81.5003 17.7777 82.5386 18.9951C83.577 20.1946 84.0961 22.0475 84.0961 24.5538V25.4131H74.8048C74.8406 26.6662 75.0913 27.5972 75.5567 28.2058C76.0222 28.7966 76.8009 29.092 77.893 29.092C78.6628 29.092 79.2804 28.8772 79.7459 28.4475C80.2292 28.0179 80.4709 27.4092 80.4709 26.6215H84.0961C84.0961 28.3938 83.5233 29.7275 82.3775 30.6227C81.2318 31.4999 79.719 31.9385 77.8393 31.9385ZM80.2829 22.9694C80.2829 21.0181 79.4684 20.0424 77.8393 20.0424C76.9084 20.0424 76.2012 20.2841 75.7178 20.7674C75.2524 21.2508 74.966 21.9848 74.8585 22.9694H80.2829Z" fill="#0D19A3"/>
<path d="M86.9336 17.4913H90.0754L90.344 19.3442H90.532C91.6777 17.8941 93.1457 17.1691 94.9359 17.1691C96.386 17.1691 97.5228 17.5629 98.3463 18.3506C99.1877 19.1383 99.6084 20.4004 99.6084 22.137V31.6162H95.9295V22.9157C95.9295 22.0385 95.7236 21.403 95.3119 21.0091C94.9001 20.6153 94.2914 20.4183 93.4858 20.4183C92.6623 20.4183 91.9731 20.7137 91.4181 21.3045C90.881 21.8774 90.6125 22.5935 90.6125 23.4528V31.6162H86.9336V17.4913Z" fill="#0D19A3"/>
<path d="M72.3433 36.0918H99.7562V42.2457H72.3433V36.0918Z" fill="#0D19A3"/>
<path d="M154.723 19.9945C155.237 23.317 155.034 26.7109 154.13 29.9489C153.226 33.187 151.64 36.1945 149.479 38.77C147.318 41.3455 144.632 43.4296 141.6 44.8828C138.569 46.336 135.262 47.1247 131.9 47.1961C128.539 47.2674 125.202 46.6199 122.111 45.2967C119.02 43.9736 116.248 42.0054 113.98 39.5239C111.711 37.0424 109.999 34.105 108.958 30.9083C107.917 27.7115 107.571 24.3293 107.944 20.988L131.399 23.6007L154.723 19.9945Z" fill="#15DB95"/>
<path d="M151.934 35.2325C149.634 39.294 146.18 42.5821 142.011 44.6809C137.842 46.7798 133.144 47.5952 128.511 47.024C123.879 46.4528 119.519 44.5207 115.985 41.472C112.45 38.4233 109.899 34.3949 108.654 29.8962L131.399 23.6007L151.934 35.2325Z" fill="#FFCE00"/>
<path d="M141.343 45.0041C136.622 47.1976 131.308 47.7685 126.229 46.628C121.149 45.4874 116.589 42.6994 113.259 38.698C109.929 34.6967 108.015 29.7064 107.816 24.5043C107.617 19.3023 109.143 14.1802 112.157 9.93573L131.399 23.6007L141.343 45.0041Z" fill="#0D19A3"/>
</svg>
